<?xml version="1.0" standalone="no"?>
<!DOCTYPE svg PUBLIC "-//W3C//DTD SVG 20010904//EN"
 "http://www.w3.org/TR/2001/REC-SVG-20010904/DTD/svg10.dtd">
<svg version="1.0" xmlns="http://www.w3.org/2000/svg"
 width="260.000000pt" height="260.000000pt" viewBox="0 0 260.000000 260.000000"
 preserveAspectRatio="xMidYMid meet">
<metadata>
Created by potrace 1.14, written by Peter Selinger 2001-2017
</metadata>
<g transform="translate(0.000000,260.000000) scale(0.100000,-0.100000)"
fill="#000000" stroke="none">
<path d="M860 2566 c-70 -31 -280 -138 -512 -259 -169 -88 -189 -118 -213
-317 -4 -30 -8 -66 -10 -80 -2 -14 -7 -53 -10 -88 -4 -35 -8 -71 -10 -80 -1
-9 -6 -46 -10 -82 -4 -36 -9 -76 -11 -90 -4 -40 -16 -143 -19 -171 -3 -36 16
-88 54 -146 17 -26 36 -55 41 -63 5 -8 21 -32 35 -53 13 -20 22 -37 18 -37 -3
0 3 -8 13 -18 21 -19 52 -68 61 -94 3 -10 8 -18 12 -18 3 0 17 -20 31 -45 14
-25 28 -45 32 -45 5 0 8 -7 8 -15 0 -8 3 -15 8 -15 6 0 35 -44 40 -62 2 -4 32
-51 67 -103 36 -53 65 -98 65 -101 0 -3 5 -10 10 -17 6 -7 34 -48 62 -92 28
-44 55 -82 59 -83 5 -2 7 -8 3 -13 -3 -5 -1 -9 4 -9 6 0 15 -14 21 -30 5 -17
15 -30 21 -30 6 0 8 -4 5 -10 -3 -5 -2 -10 2 -10 5 0 19 -20 33 -45 14 -25 27
-45 30 -45 3 0 11 -13 18 -28 16 -38 76 -102 95 -102 9 0 18 -4 21 -8 11 -19
146 0 146 20 0 5 5 6 10 3 6 -3 10 -1 10 5 0 6 14 16 30 21 17 6 30 14 30 19
0 4 14 13 30 20 17 7 30 16 30 21 0 5 5 9 10 9 6 0 51 27 100 60 49 33 92 60
95 60 6 0 64 39 75 50 3 3 34 23 70 44 36 22 67 43 68 48 2 4 8 8 13 8 6 0 43
23 84 50 41 27 79 50 85 50 5 0 10 5 10 10 0 6 7 10 15 10 8 0 15 5 15 10 0 6
4 10 10 10 8 0 150 87 176 109 5 4 21 14 34 21 14 7 31 19 38 27 7 7 19 13 27
13 7 0 16 7 19 16 3 8 10 12 16 9 5 -3 10 -2 10 2 0 5 16 17 35 27 19 11 35
23 35 28 0 5 5 6 10 3 6 -3 10 -1 10 5 0 6 4 9 9 6 4 -3 16 3 26 14 10 11 30
26 44 33 32 16 71 39 85 50 6 4 25 18 41 30 17 12 32 29 34 37 9 37 9 64 -2
89 -14 32 -149 235 -159 239 -5 2 -8 10 -8 18 0 8 -3 14 -8 14 -4 0 -16 17
-27 37 -11 20 -24 41 -30 47 -5 6 -23 31 -40 56 -16 25 -33 47 -38 48 -4 2 -5
8 -2 12 3 5 -5 16 -17 25 -13 8 -21 16 -18 18 5 3 -81 131 -92 135 -4 2 -8 8
-8 14 0 8 -55 93 -70 108 -3 3 -25 34 -49 70 -60 90 -105 154 -111 160 -3 3
-19 25 -35 50 -35 53 -37 56 -70 96 -14 18 -25 37 -25 43 0 6 -4 11 -8 11 -4
0 -15 12 -24 28 -18 29 -46 65 -92 119 -16 19 -52 46 -80 60 -64 32 -186 74
-197 68 -4 -3 -10 -2 -13 3 -2 4 -85 9 -183 10 l-178 2 -75 -34z"/>
</g>
</svg>
